<?xml version="1.0" standalone="no"?>
 <!DOCTYPE svg PUBLIC "-//W3C//DTD SVG 1.1//EN" 
 "http://www.w3.org/Graphics/SVG/1.1/DTD/svg11.dtd"> 
<svg
  xmlns:svg="http://www.w3.org/2000/svg"
  xmlns="http://www.w3.org/2000/svg"
  xmlns:xlink="http://www.w3.org/1999/xlink"
  version="1.1"
  width="5.003800cm" height="3.683000cm" viewBox="0 0 19700 14500">
<title>SVG Picture created as B-brd.svg date 2021/07/23 10:08:46 </title>
  <desc>Picture generated by PCBNEW </desc>
<g style="fill:#000000; fill-opacity:1;stroke:#000000; stroke-opacity:1;
stroke-linecap:round; stroke-linejoin:round;"
 transform="translate(0 0) scale(1 1)">
</g>
<g style="fill:#000000; fill-opacity:0.0; 
stroke:#000000; stroke-width:-0.000393701; stroke-opacity:1; 
stroke-linecap:round; stroke-linejoin:round;">
<g >
</g>
</g>
<g style="fill:#000000; fill-opacity:0.0; 
stroke:#000000; stroke-width:-0.000393701; stroke-opacity:1; 
stroke-linecap:round; stroke-linejoin:round;">
</g>
<g style="fill:#000000; fill-opacity:0.0; 
stroke:#000000; stroke-width:19.685; stroke-opacity:1; 
stroke-linecap:round; stroke-linejoin:round;">
<path d="M1584.65 9.84291 A1574.8 1574.8 0.0 0 0 1584.65 3159.45" />
<path d="M5127 3159
L5127 14399
" />
<path d="M18120.1 3159.45 A1574.8 1574.8 0.0 0 0 18120.1 9.84291" />
<circle cx="1584.65" cy="1584.65" r="629.921" /> 
<path d="M18120 3159
L14576 3159
" />
<path d="M14478.3 14498 A98.4252 98.4252 0.0 0 0 14576.8 14399.6" />
<path d="M5127.95 14399.6 A98.4252 98.4252 0.0 0 0 5226.38 14498" />
<path d="M14478 14498
L5226 14498
" />
<path d="M14576 9
L5127 9
" />
<path d="M1584 3159
L5127 3159
" />
<path d="M5127 9
L1584 9
" />
<circle cx="18120.1" cy="1584.65" r="629.921" /> 
<path d="M14576 9
L18120 9
" />
<path d="M14576 3159
L14576 14399
" />
<g >
</g>
</g> 
</svg>
