<?xml version="1.0" standalone="no"?>
 <!DOCTYPE svg PUBLIC "-//W3C//DTD SVG 1.1//EN" 
 "http://www.w3.org/Graphics/SVG/1.1/DTD/svg11.dtd"> 
<svg
  xmlns:svg="http://www.w3.org/2000/svg"
  xmlns="http://www.w3.org/2000/svg"
  xmlns:xlink="http://www.w3.org/1999/xlink"
  version="1.1"
  width="20.386040cm" height="7.051040cm" viewBox="0 0 80260 27760">
<title>SVG Picture created as B-brd.svg date 2021/07/23 10:06:02 </title>
  <desc>Picture generated by PCBNEW </desc>
<g style="fill:#000000; fill-opacity:1;stroke:#000000; stroke-opacity:1;
stroke-linecap:round; stroke-linejoin:round;"
 transform="translate(0 0) scale(1 1)">
</g>
<g style="fill:#000000; fill-opacity:0.0; 
stroke:#000000; stroke-width:-0.000393701; stroke-opacity:1; 
stroke-linecap:round; stroke-linejoin:round;">
</g>
<g style="fill:#000000; fill-opacity:0.0; 
stroke:#000000; stroke-width:47.2441; stroke-opacity:1; 
stroke-linecap:round; stroke-linejoin:round;">
<path d="M14874 24136
L14874 18624
" />
<path d="M20386 24136
L14874 24136
" />
<path d="M20386 18624
L20386 24136
" />
<path d="M14874 18624
L20386 18624
" />
<path d="M67374 24136
L67374 18624
" />
<path d="M72886 24136
L67374 24136
" />
<path d="M72886 18624
L72886 24136
" />
<path d="M67374 18624
L72886 18624
" />
<path d="M22374 24136
L22374 18624
" />
<path d="M27886 24136
L22374 24136
" />
<path d="M27886 18624
L27886 24136
" />
<path d="M22374 18624
L27886 18624
" />
<path d="M18624 9136
L18624 3624
" />
<path d="M24136 9136
L18624 9136
" />
<path d="M24136 3624
L24136 9136
" />
<path d="M18624 3624
L24136 3624
" />
<path d="M59874 24136
L59874 18624
" />
<path d="M65386 24136
L59874 24136
" />
<path d="M65386 18624
L65386 24136
" />
<path d="M59874 18624
L65386 18624
" />
<path d="M11124 9136
L11124 3624
" />
<path d="M16636 9136
L11124 9136
" />
<path d="M16636 3624
L16636 9136
" />
<path d="M11124 3624
L16636 3624
" />
<path d="M56124 9136
L56124 3624
" />
<path d="M61636 9136
L56124 9136
" />
<path d="M61636 3624
L61636 9136
" />
<path d="M56124 3624
L61636 3624
" />
<path d="M3624 9136
L3624 3624
" />
<path d="M9136 9136
L3624 9136
" />
<path d="M9136 3624
L9136 9136
" />
<path d="M3624 3624
L9136 3624
" />
<path d="M33624 16636
L33624 11124
" />
<path d="M39136 16636
L33624 16636
" />
<path d="M39136 11124
L39136 16636
" />
<path d="M33624 11124
L39136 11124
" />
<path d="M3624 16636
L3624 11124
" />
<path d="M9136 16636
L3624 16636
" />
<path d="M9136 11124
L9136 16636
" />
<path d="M3624 11124
L9136 11124
" />
<path d="M11124 16636
L11124 11124
" />
<path d="M16636 16636
L11124 16636
" />
<path d="M16636 11124
L16636 16636
" />
<path d="M11124 11124
L16636 11124
" />
<path d="M41124 9136
L41124 3624
" />
<path d="M46636 9136
L41124 9136
" />
<path d="M46636 3624
L46636 9136
" />
<path d="M41124 3624
L46636 3624
" />
<path d="M33624 9136
L33624 3624
" />
<path d="M39136 9136
L33624 9136
" />
<path d="M39136 3624
L39136 9136
" />
<path d="M33624 3624
L39136 3624
" />
<path d="M26124 9136
L26124 3624
" />
<path d="M31636 9136
L26124 9136
" />
<path d="M31636 3624
L31636 9136
" />
<path d="M26124 3624
L31636 3624
" />
<path d="M29874 24136
L29874 18624
" />
<path d="M35386 24136
L29874 24136
" />
<path d="M35386 18624
L35386 24136
" />
<path d="M29874 18624
L35386 18624
" />
<path d="M18624 16636
L18624 11124
" />
<path d="M24136 16636
L18624 16636
" />
<path d="M24136 11124
L24136 16636
" />
<path d="M18624 11124
L24136 11124
" />
<path d="M7374 24136
L7374 18624
" />
<path d="M12886 24136
L7374 24136
" />
<path d="M12886 18624
L12886 24136
" />
<path d="M7374 18624
L12886 18624
" />
<path d="M41124 16636
L41124 11124
" />
<path d="M46636 16636
L41124 16636
" />
<path d="M46636 11124
L46636 16636
" />
<path d="M41124 11124
L46636 11124
" />
<path d="M48624 9136
L48624 3624
" />
<path d="M54136 9136
L48624 9136
" />
<path d="M54136 3624
L54136 9136
" />
<path d="M48624 3624
L54136 3624
" />
<path d="M48624 16636
L48624 11124
" />
<path d="M54136 16636
L48624 16636
" />
<path d="M54136 11124
L54136 16636
" />
<path d="M48624 11124
L54136 11124
" />
<path d="M71124 16636
L71124 11124
" />
<path d="M76636 16636
L71124 16636
" />
<path d="M76636 11124
L76636 16636
" />
<path d="M71124 11124
L76636 11124
" />
<path d="M71124 9136
L71124 3624
" />
<path d="M76636 9136
L71124 9136
" />
<path d="M76636 3624
L76636 9136
" />
<path d="M71124 3624
L76636 3624
" />
<path d="M63624 9136
L63624 3624
" />
<path d="M69136 9136
L63624 9136
" />
<path d="M69136 3624
L69136 9136
" />
<path d="M63624 3624
L69136 3624
" />
<path d="M63624 16636
L63624 11124
" />
<path d="M69136 16636
L63624 16636
" />
<path d="M69136 11124
L69136 16636
" />
<path d="M63624 11124
L69136 11124
" />
<path d="M56124 16636
L56124 11124
" />
<path d="M61636 16636
L56124 16636
" />
<path d="M61636 11124
L61636 16636
" />
<path d="M56124 11124
L61636 11124
" />
<path d="M26124 16636
L26124 11124
" />
<path d="M31636 16636
L26124 16636
" />
<path d="M31636 11124
L31636 16636
" />
<path d="M26124 11124
L31636 11124
" />
<path d="M56292 24136
L50386 24136
" />
<path d="M56292 18624
L56292 24136
" />
<path d="M50386 18624
L56292 18624
" />
<path d="M38969 24136
L44874 24136
" />
<path d="M38969 18624
L38969 24136
" />
<path d="M44874 18624
L38969 18624
" />
<path d="M50386 24136
L44874 24136
" />
<path d="M44874 18624
L50386 18624
" />
<g >
</g>
<g >
</g>
<g >
</g>
<g >
</g>
<g >
</g>
<g >
</g>
<g >
</g>
<g >
</g>
<g >
</g>
<g >
</g>
<g >
</g>
<g >
</g>
<g >
</g>
<g >
</g>
<g >
</g>
<g >
</g>
<g >
</g>
<g >
</g>
<g >
</g>
<g >
</g>
<g >
</g>
<g >
</g>
<g >
</g>
<g >
</g>
<g >
</g>
<g >
</g>
<g >
</g>
<g >
</g>
</g>
<g style="fill:#000000; fill-opacity:0.0; 
stroke:#000000; stroke-width:47.2441; stroke-opacity:1; 
stroke-linecap:round; stroke-linejoin:round;">
</g>
<g style="fill:#000000; fill-opacity:0.0; 
stroke:#000000; stroke-width:19.685; stroke-opacity:1; 
stroke-linecap:round; stroke-linejoin:round;">
<path d="M39105 9
L1032 9
" />
<path d="M80251 26728
L80251 1032
" />
<path d="M9 1032
L9 26728
" />
<path d="M41152 27751
L79228 27751
" />
<path d="M79228 9
L41152 9
" />
<path d="M1032 27751
L39105 27751
" />
<path d="M41152.4 27751.5 A1023.62 1023.62 0.0 0 0 39105.1 27751.5" />
<path d="M80251.5 26728.6 A1022.84 1022.84 0.0 0 0 79228.7 27751.5" />
<path d="M79228.7 9.84291 A1022.84 1022.84 0.0 0 0 80251.5 1032.69" />
<path d="M9.84291 1032.69 A1022.84 1022.84 0.0 0 0 1032.69 9.84291" />
<path d="M39105.1 9.84291 A1023.62 1023.62 0.0 0 0 41152.4 9.84291" />
<path d="M1032.69 27751.5 A1022.84 1022.84 0.0 0 0 9.84291 26728.6" />
<g >
</g>
<g >
</g>
<g >
</g>
<g >
</g>
<g >
</g>
<g >
</g>
<g >
</g>
<g >
</g>
<g >
</g>
<g >
</g>
<g >
</g>
<g >
</g>
<g >
</g>
<g >
</g>
<g >
</g>
<g >
</g>
<g >
</g>
<g >
</g>
<g >
</g>
<g >
</g>
<g >
</g>
<g >
</g>
<g >
</g>
<g >
</g>
<g >
</g>
<g >
</g>
<g >
</g>
<g >
</g>
</g> 
</svg>
