<?xml version="1.0" standalone="no"?>
 <!DOCTYPE svg PUBLIC "-//W3C//DTD SVG 1.1//EN" 
 "http://www.w3.org/Graphics/SVG/1.1/DTD/svg11.dtd"> 
<svg
  xmlns:svg="http://www.w3.org/2000/svg"
  xmlns="http://www.w3.org/2000/svg"
  xmlns:xlink="http://www.w3.org/1999/xlink"
  version="1.1"
  width="21.785580cm" height="8.450580cm" viewBox="0 0 85770 33270">
<title>SVG Picture created as B-brd.svg date 2021/07/23 10:07:06 </title>
  <desc>Picture generated by PCBNEW </desc>
<g style="fill:#000000; fill-opacity:1;stroke:#000000; stroke-opacity:1;
stroke-linecap:round; stroke-linejoin:round;"
 transform="translate(0 0) scale(1 1)">
</g>
<g style="fill:#000000; fill-opacity:0.0; 
stroke:#000000; stroke-width:-0.000393701; stroke-opacity:1; 
stroke-linecap:round; stroke-linejoin:round;">
</g>
<g style="fill:#000000; fill-opacity:0.0; 
stroke:#000000; stroke-width:59.0551; stroke-opacity:1; 
stroke-linecap:round; stroke-linejoin:round;">
<circle cx="2765.75" cy="30507.4" r="1023.62" /> 
<g >
</g>
</g>
<g style="fill:#000000; fill-opacity:0.0; 
stroke:#000000; stroke-width:59.0551; stroke-opacity:1; 
stroke-linecap:round; stroke-linejoin:round;">
</g>
<g style="fill:#000000; fill-opacity:0.0; 
stroke:#000000; stroke-width:19.685; stroke-opacity:1; 
stroke-linecap:round; stroke-linejoin:round;">
<path d="M77818.1 20778.5 A787.402 787.402 0.0 0 0 77030.7 21565.9" />
<path d="M8743.28 21565.9 A787.402 787.402 0.0 0 0 7955.87 20778.5" />
<path d="M8742 28280
L77030 28280
" />
<path d="M4992 4992
L4992 20780
" />
</g>
<g style="fill:#000000; fill-opacity:0.0; 
stroke:#000000; stroke-width:59.0551; stroke-opacity:1; 
stroke-linecap:round; stroke-linejoin:round;">
<circle cx="83007.4" cy="30507.4" r="1023.62" /> 
</g>
<g style="fill:#000000; fill-opacity:0.0; 
stroke:#000000; stroke-width:19.685; stroke-opacity:1; 
stroke-linecap:round; stroke-linejoin:round;">
<path d="M8742 28280
L8743 21565
" />
<path d="M9.84291 30507.4 A2755.91 2755.91 0.0 0 0 2765.75 33263.3" />
<circle cx="2765.75" cy="2765.75" r="1023.62" /> 
<path d="M80780 20780
L80780 4992
" />
<path d="M7955 20778
L4992 20780
" />
<path d="M28467.7 4203.67 A787.402 787.402 0.0 0 0 29255.1 4991.07" />
<path d="M19806.3 798.161 A787.402 787.402 0.0 0 0 19018.9 10.7594" />
<path d="M29255 10
L83007 9
" />
<path d="M4992 4992
L19018 4991
" />
<path d="M19806 4203
L19806 798
" />
<path d="M77030 28280
L77030 21565
" />
<path d="M80780 4992
L29255 4991
" />
<path d="M85763.3 2765.75 A2755.91 2755.91 0.0 0 0 83007.4 9.84291" />
<path d="M28467 4203
L28467 798
" />
<path d="M19018.9 4991.07 A787.402 787.402 0.0 0 0 19806.3 4203.67" />
<path d="M29255.1 10.7591 A787.402 787.402 0.0 0 0 28467.7 798.161" />
<path d="M77818 20778
L80780 20780
" />
<circle cx="83007.4" cy="2765.75" r="1023.62" /> 
<path d="M9 2765
L9 30507
" />
<circle cx="42884.7" cy="2765.75" r="1023.62" /> 
<path d="M83007.4 33263.3 A2755.91 2755.91 0.0 0 0 85763.3 30507.4" />
<path d="M2765 33263
L83007 33263
" />
<path d="M85763 30507
L85763 2765
" />
<path d="M2765.75 9.84331 A2755.91 2755.91 0.0 0 0 9.84291 2765.75" />
<circle cx="42884.7" cy="30507.4" r="1023.62" /> 
<path d="M19018 10
L2765 9
" />
<g >
</g>
</g> 
</svg>
