<?xml version="1.0" standalone="no"?>
 <!DOCTYPE svg PUBLIC "-//W3C//DTD SVG 1.1//EN" 
 "http://www.w3.org/Graphics/SVG/1.1/DTD/svg11.dtd"> 
<svg
  xmlns:svg="http://www.w3.org/2000/svg"
  xmlns="http://www.w3.org/2000/svg"
  xmlns:xlink="http://www.w3.org/1999/xlink"
  version="1.1"
  width="20.386040cm" height="7.051040cm" viewBox="0 0 80260 27760">
<title>SVG Picture created as B-brd.svg date 2021/07/23 10:08:11 </title>
  <desc>Picture generated by PCBNEW </desc>
<g style="fill:#000000; fill-opacity:1;stroke:#000000; stroke-opacity:1;
stroke-linecap:round; stroke-linejoin:round;"
 transform="translate(0 0) scale(1 1)">
</g>
<g style="fill:#000000; fill-opacity:0.0; 
stroke:#000000; stroke-width:-0.000393701; stroke-opacity:1; 
stroke-linecap:round; stroke-linejoin:round;">
<g >
</g>
</g>
<g style="fill:#000000; fill-opacity:0.0; 
stroke:#000000; stroke-width:-0.000393701; stroke-opacity:1; 
stroke-linecap:round; stroke-linejoin:round;">
</g>
<g style="fill:#000000; fill-opacity:0.0; 
stroke:#000000; stroke-width:19.685; stroke-opacity:1; 
stroke-linecap:round; stroke-linejoin:round;">
<path d="M25711 11
L25711 16727
" />
<path d="M1033.47 27751.5 A1023.62 1023.62 0.0 0 0 9.84291 26727.8" />
<path d="M17049 11
L17049 16727
" />
<path d="M9 1033
L9 26727
" />
<path d="M17049 11
L1033 9
" />
<path d="M39105 9
L25711 11
" />
<path d="M80251.5 26727.8 A1023.62 1023.62 0.0 0 0 79227.9 27751.5" />
<path d="M79227.9 9.84291 A1023.62 1023.62 0.0 0 0 80251.5 1033.47" />
<path d="M9.84291 1033.46 A1023.62 1023.62 0.0 0 0 1033.46 9.84291" />
<path d="M41152 27751
L79227 27751
" />
<path d="M25711 16727
L17049 16727
" />
<circle cx="13112.2" cy="4208.15" r="393.701" /> 
<circle cx="29647.6" cy="4208.15" r="393.701" /> 
<path d="M41152.4 27751.5 A1023.62 1023.62 0.0 0 0 39105.1 27751.5" />
<circle cx="67149.2" cy="4208.15" r="393.701" /> 
<path d="M39105.1 9.84291 A1023.62 1023.62 0.0 0 0 41152.4 9.84291" />
<circle cx="50613.7" cy="4208.15" r="393.701" /> 
</g>
<g style="fill:#000000; fill-opacity:0.0; 
stroke:#000000; stroke-width:59.0551; stroke-opacity:1; 
stroke-linecap:round; stroke-linejoin:round;">
<circle cx="33076.8" cy="3534.92" r="590.551" /> 
</g>
<g style="fill:#000000; fill-opacity:0.0; 
stroke:#000000; stroke-width:19.685; stroke-opacity:1; 
stroke-linecap:round; stroke-linejoin:round;">
<path d="M79227 9
L41152 9
" />
<path d="M80251 26727
L80251 1033
" />
<path d="M1033 27751
L39105 27751
" />
<g >
</g>
</g> 
</svg>
