<?xml version="1.0" standalone="no"?>
 <!DOCTYPE svg PUBLIC "-//W3C//DTD SVG 1.1//EN" 
 "http://www.w3.org/Graphics/SVG/1.1/DTD/svg11.dtd"> 
<svg
  xmlns:svg="http://www.w3.org/2000/svg"
  xmlns="http://www.w3.org/2000/svg"
  xmlns:xlink="http://www.w3.org/1999/xlink"
  version="1.1"
  width="21.785580cm" height="8.450580cm" viewBox="0 0 85770 33270">
<title>SVG Picture created as B-brd.svg date 2021/07/23 10:07:40 </title>
  <desc>Picture generated by PCBNEW </desc>
<g style="fill:#000000; fill-opacity:1;stroke:#000000; stroke-opacity:1;
stroke-linecap:round; stroke-linejoin:round;"
 transform="translate(0 0) scale(1 1)">
</g>
<g style="fill:#000000; fill-opacity:0.0; 
stroke:#000000; stroke-width:-0.000393701; stroke-opacity:1; 
stroke-linecap:round; stroke-linejoin:round;">
<g >
</g>
</g>
<g style="fill:#000000; fill-opacity:0.0; 
stroke:#000000; stroke-width:-0.000393701; stroke-opacity:1; 
stroke-linecap:round; stroke-linejoin:round;">
</g>
<g style="fill:#000000; fill-opacity:0.0; 
stroke:#000000; stroke-width:19.685; stroke-opacity:1; 
stroke-linecap:round; stroke-linejoin:round;">
<path d="M9 2765
L9 30507
" />
<path d="M83007.4 33263.3 A2755.91 2755.91 0.0 0 0 85763.3 30507.4" />
<path d="M85763.3 2765.75 A2755.91 2755.91 0.0 0 0 83007.4 9.84291" />
<path d="M2765.75 9.84331 A2755.91 2755.91 0.0 0 0 9.84291 2765.75" />
<path d="M2765 33263
L83007 33263
" />
<path d="M3789 30507
L41861 30507
" />
<path d="M9.84291 30507.4 A2755.91 2755.91 0.0 0 0 2765.75 33263.3" />
<path d="M43908 30507
L81983 30507
" />
<path d="M83007.4 3789.37 A1023.62 1023.62 0.0 1 0 81983.8 2765.75" />
<path d="M19805 2767
L3789 2765
" />
<path d="M81983 2765
L43908 2765
" />
<path d="M41861 30507.4 A1023.62 1023.62 0.0 0 0 43908.3 30507.4" />
<path d="M83007 29483
L83007 3789
" />
<path d="M85763 30507
L85763 2765
" />
<path d="M2765.75 29483.7 A1023.62 1023.62 0.0 1 0 3789.37 30507.4" />
<path d="M43908.3 2765.75 A1023.62 1023.62 0.0 0 0 41861 2765.75" />
<path d="M83007 9
L29255 10
" />
<path d="M81983.8 30507.4 A1023.62 1023.62 0.0 1 0 83007.4 29483.7" />
<path d="M3789.37 2765.75 A1023.62 1023.62 0.0 1 0 2765.75 3789.37" />
<path d="M2765 9
L19018 10
" />
<path d="M28467 2767
L28467 798
" />
<path d="M2765 3789
L2765 29483
" />
<path d="M19806.3 798.161 A787.402 787.402 0.0 0 0 19018.9 10.7594" />
<path d="M19805 2767
L19806 798
" />
<path d="M41861 2765
L28467 2767
" />
<path d="M29255.1 10.7591 A787.402 787.402 0.0 0 0 28467.7 798.161" />
<g >
</g>
</g> 
</svg>
