  0
SECTION
  2
HEADER
  9
$ACADVER
  1
AC1014
  9
$HANDSEED
  5
FFFF
  9
$MEASUREMENT
 70
     1
  0
ENDSEC
  0
SECTION
  2
TABLES
  0
TABLE
  2
VPORT
  5
8
330
0
100
AcDbSymbolTable
 70
     4
  0
VPORT
  5
2E
330
8
100
AcDbSymbolTableRecord
100
AcDbViewportTableRecord
  2
*ACTIVE
 70
     0
 10
0.0
 20
0.0
 11
1.0
 21
1.0
 12
210.0
 22
148.5
 13
0.0
 23
0.0
 14
10.0
 24
10.0
 15
10.0
 25
10.0
 16
0.0
 26
0.0
 36
1.0
 17
0.0
 27
0.0
 37
0.0
 40
341.0
 41
1.24
 42
50.0
 43
0.0
 44
0.0
 50
0.0
 51
0.0
 71
     0
 72
   100
 73
     1
 74
     3
 75
     0
 76
     0
 77
     0
 78
     0
  0
ENDTAB
  0
TABLE
  2
LTYPE
  5
5
330
0
100
AcDbSymbolTable
 70
     1
  0
LTYPE
  5
14
330
5
100
AcDbSymbolTableRecord
100
AcDbLinetypeTableRecord
  2
BYBLOCK
 70
     0
  3

 72
    65
 73
     0
 40
0.0
  0
LTYPE
  5
15
330
5
100
AcDbSymbolTableRecord
100
AcDbLinetypeTableRecord
  2
BYLAYER
 70
     0
  3

 72
    65
 73
     0
 40
0.0
  0
LTYPE
  5
16
330
5
100
AcDbSymbolTableRecord
100
AcDbLinetypeTableRecord
  2
CONTINUOUS
 70
     0
  3
Solid line
 72
    65
 73
     0
 40
0.0
  0
ENDTAB
  0
TABLE
  2
LAYER
  5
2
100
AcDbSymbolTable
 70
1
  0
LAYER
  5
50
100
AcDbSymbolTableRecord
100
AcDbLayerTableRecord
  2
0
 70
0
  6
CONTINUOUS
  0
ENDTAB
  0
TABLE
  2
STYLE
  5
3
330
0
100
AcDbSymbolTable
 70
     1
  0
STYLE
  5
11
330
3
100
AcDbSymbolTableRecord
100
AcDbTextStyleTableRecord
  2
STANDARD
 70
     0
 40
0.0
 41
1.0
 50
0.0
 71
     0
 42
2.5
  3
txt
  4

  0
ENDTAB
  0
TABLE
  2
VIEW
  5
6
330
0
100
AcDbSymbolTable
 70
     0
  0
ENDTAB
  0
TABLE
  2
UCS
  5
7
330
0
100
AcDbSymbolTable
 70
     0
  0
ENDTAB
  0
TABLE
  2
APPID
  5
9
330
0
100
AcDbSymbolTable
 70
     2
  0
APPID
  5
12
330
9
100
AcDbSymbolTableRecord
100
AcDbRegAppTableRecord
  2
ACAD
 70
     0
  0
ENDTAB
  0
TABLE
  2
DIMSTYLE
  5
A
330
0
100
AcDbSymbolTable
 70
     1
  0
DIMSTYLE
105
27
330
A
100
AcDbSymbolTableRecord
100
AcDbDimStyleTableRecord
  2
ISO-25
 70
     0
  3

  4

  5

  6

  7

 40
1.0
 41
2.5
 42
0.625
 43
3.75
 44
1.25
 45
0.0
 46
0.0
 47
0.0
 48
0.0
140
2.5
141
2.5
142
0.0
143
0.03937007874016
144
1.0
145
0.0
146
1.0
147
0.625
 71
     0
 72
     0
 73
     0
 74
     0
 75
     0
 76
     0
 77
     1
 78
     8
170
     0
171
     3
172
     1
173
     0
174
     0
175
     0
176
     0
177
     0
178
     0
270
     2
271
     2
272
     2
273
     2
274
     3
340
11
275
     0
280
     0
281
     0
282
     0
283
     0
284
     8
285
     0
286
     0
287
     3
288
     0
  0
ENDTAB
  0
TABLE
  2
BLOCK_RECORD
  5
1
330
0
100
AcDbSymbolTable
 70
     1
  0
BLOCK_RECORD
  5
1F
330
1
100
AcDbSymbolTableRecord
100
AcDbBlockTableRecord
  2
*MODEL_SPACE
  0
BLOCK_RECORD
  5
1B
330
1
100
AcDbSymbolTableRecord
100
AcDbBlockTableRecord
  2
*PAPER_SPACE
  0
ENDTAB
  0
ENDSEC
  0
SECTION
  2
BLOCKS
  0
BLOCK
  5
20
330
1F
100
AcDbEntity
  8
0
100
AcDbBlockBegin
  2
*MODEL_SPACE
 70
     0
 10
0.0
 20
0.0
 30
0.0
  3
*MODEL_SPACE
  1

  0
ENDBLK
  5
21
330
1F
100
AcDbEntity
  8
0
100
AcDbBlockEnd
  0
BLOCK
  5
1C
330
1B
100
AcDbEntity
 67
     1
  8
0
100
AcDbBlockBegin
  2
*PAPER_SPACE
  1

  0
ENDBLK
  5
1D
330
1B
100
AcDbEntity
 67
     1
  8
0
100
AcDbBlockEnd
  0
ENDSEC
  0
SECTION
  2
ENTITIES
  0
SPLINE
  5
100
100
AcDbEntity
  8
0
 62
7
100
AcDbSpline
 70
8
 71
3
 72
8
 73
4
 74
0
 40
0
 40
0
 40
0
 40
0
 40
1
 40
1
 40
1
 40
1
 10
7.025005
 20
-74.077546
 30
0.0
 10
5.973405
 20
-74.077546
 30
0.0
 10
5.025353
 20
-74.711014
 30
0.0
 10
4.622923
 20
-75.682565
 30
0.0
  0
SPLINE
  5
101
100
AcDbEntity
  8
0
 62
7
100
AcDbSpline
 70
8
 71
3
 72
8
 73
4
 74
0
 40
0
 40
0
 40
0
 40
0
 40
1
 40
1
 40
1
 40
1
 10
4.622923
 20
-75.682565
 30
0.0
 10
4.220493
 20
-76.654117
 30
0.0
 10
4.442938
 20
-77.772421
 30
0.0
 10
5.186531
 20
-78.516014
 30
0.0
  0
SPLINE
  5
102
100
AcDbEntity
  8
0
 62
7
100
AcDbSpline
 70
8
 71
3
 72
8
 73
4
 74
0
 40
0
 40
0
 40
0
 40
0
 40
1
 40
1
 40
1
 40
1
 10
5.186531
 20
-78.516014
 30
0.0
 10
5.930124
 20
-79.259608
 30
0.0
 10
7.048428
 20
-79.482052
 30
0.0
 10
8.019980
 20
-79.079622
 30
0.0
  0
SPLINE
  5
103
100
AcDbEntity
  8
0
 62
7
100
AcDbSpline
 70
8
 71
3
 72
8
 73
4
 74
0
 40
0
 40
0
 40
0
 40
0
 40
1
 40
1
 40
1
 40
1
 10
8.019980
 20
-79.079622
 30
0.0
 10
8.991531
 20
-78.677193
 30
0.0
 10
9.625000
 20
-77.729140
 30
0.0
 10
9.625000
 20
-76.677540
 30
0.0
  0
SPLINE
  5
104
100
AcDbEntity
  8
0
 62
7
100
AcDbSpline
 70
8
 71
3
 72
8
 73
4
 74
0
 40
0
 40
0
 40
0
 40
0
 40
1
 40
1
 40
1
 40
1
 10
9.625000
 20
-76.677540
 30
0.0
 10
9.625000
 20
-75.987979
 30
0.0
 10
9.351073
 20
-75.326660
 30
0.0
 10
8.863479
 20
-74.839066
 30
0.0
  0
SPLINE
  5
105
100
AcDbEntity
  8
0
 62
7
100
AcDbSpline
 70
8
 71
3
 72
8
 73
4
 74
0
 40
0
 40
0
 40
0
 40
0
 40
1
 40
1
 40
1
 40
1
 10
8.863479
 20
-74.839066
 30
0.0
 10
8.375885
 20
-74.351473
 30
0.0
 10
7.714566
 20
-74.077546
 30
0.0
 10
7.025005
 20
-74.077546
 30
0.0
  0
SPLINE
  5
106
100
AcDbEntity
  8
0
 62
7
100
AcDbSpline
 70
8
 71
3
 72
8
 73
4
 74
0
 40
0
 40
0
 40
0
 40
0
 40
1
 40
1
 40
1
 40
1
 10
197.657974
 20
-51.966134
 30
0.0
 10
196.553408
 20
-51.966137
 30
0.0
 10
195.657981
 20
-52.861564
 30
0.0
 10
195.657978
 20
-53.966130
 30
0.0
  0
SPLINE
  5
107
100
AcDbEntity
  8
0
 62
7
100
AcDbSpline
 70
8
 71
3
 72
8
 73
4
 74
0
 40
0
 40
0
 40
0
 40
0
 40
1
 40
1
 40
1
 40
1
 10
22.207931
 20
-53.966130
 30
0.0
 10
22.207930
 20
-53.435694
 30
0.0
 10
21.997213
 20
-52.926985
 30
0.0
 10
21.622135
 20
-52.551912
 30
0.0
  0
SPLINE
  5
108
100
AcDbEntity
  8
0
 62
7
100
AcDbSpline
 70
8
 71
3
 72
8
 73
4
 74
0
 40
0
 40
0
 40
0
 40
0
 40
1
 40
1
 40
1
 40
1
 10
21.622135
 20
-52.551912
 30
0.0
 10
21.247058
 20
-52.176840
 30
0.0
 10
20.738346
 20
-51.966129
 30
0.0
 10
20.207910
 20
-51.966134
 30
0.0
  0
LWPOLYLINE
  5
109
100
AcDbEntity
  8
0
 62
7
100
AcDbPolyline
 90
1
 70
1
 10
7.025005
 20
-74.077546
 30
0.0
  0
LWPOLYLINE
  5
10a
100
AcDbEntity
  8
0
 62
7
100
AcDbPolyline
 90
2
 70
0
 10
22.204680
 20
-71.019944
 30
0.0
 10
195.656200
 20
-71.019944
 30
0.0
  0
SPLINE
  5
10b
100
AcDbEntity
  8
0
 62
7
100
AcDbSpline
 70
8
 71
3
 72
8
 73
4
 74
0
 40
0
 40
0
 40
0
 40
0
 40
1
 40
1
 40
1
 40
1
 10
210.838796
 20
-74.077546
 30
0.0
 10
209.787196
 20
-74.077546
 30
0.0
 10
208.839144
 20
-74.711014
 30
0.0
 10
208.436714
 20
-75.682565
 30
0.0
  0
SPLINE
  5
10c
100
AcDbEntity
  8
0
 62
7
100
AcDbSpline
 70
8
 71
3
 72
8
 73
4
 74
0
 40
0
 40
0
 40
0
 40
0
 40
1
 40
1
 40
1
 40
1
 10
208.436714
 20
-75.682565
 30
0.0
 10
208.034284
 20
-76.654117
 30
0.0
 10
208.256729
 20
-77.772421
 30
0.0
 10
209.000322
 20
-78.516014
 30
0.0
  0
SPLINE
  5
10d
100
AcDbEntity
  8
0
 62
7
100
AcDbSpline
 70
8
 71
3
 72
8
 73
4
 74
0
 40
0
 40
0
 40
0
 40
0
 40
1
 40
1
 40
1
 40
1
 10
209.000322
 20
-78.516014
 30
0.0
 10
209.743915
 20
-79.259608
 30
0.0
 10
210.862219
 20
-79.482052
 30
0.0
 10
211.833771
 20
-79.079622
 30
0.0
  0
SPLINE
  5
10e
100
AcDbEntity
  8
0
 62
7
100
AcDbSpline
 70
8
 71
3
 72
8
 73
4
 74
0
 40
0
 40
0
 40
0
 40
0
 40
1
 40
1
 40
1
 40
1
 10
211.833771
 20
-79.079622
 30
0.0
 10
212.805322
 20
-78.677193
 30
0.0
 10
213.438791
 20
-77.729140
 30
0.0
 10
213.438791
 20
-76.677540
 30
0.0
  0
SPLINE
  5
10f
100
AcDbEntity
  8
0
 62
7
100
AcDbSpline
 70
8
 71
3
 72
8
 73
4
 74
0
 40
0
 40
0
 40
0
 40
0
 40
1
 40
1
 40
1
 40
1
 10
213.438791
 20
-76.677540
 30
0.0
 10
213.438791
 20
-75.987979
 30
0.0
 10
213.164864
 20
-75.326660
 30
0.0
 10
212.677270
 20
-74.839066
 30
0.0
  0
SPLINE
  5
110
100
AcDbEntity
  8
0
 62
7
100
AcDbSpline
 70
8
 71
3
 72
8
 73
4
 74
0
 40
0
 40
0
 40
0
 40
0
 40
1
 40
1
 40
1
 40
1
 10
212.677270
 20
-74.839066
 30
0.0
 10
212.189676
 20
-74.351473
 30
0.0
 10
211.528357
 20
-74.077546
 30
0.0
 10
210.838796
 20
-74.077546
 30
0.0
  0
LWPOLYLINE
  5
111
100
AcDbEntity
  8
0
 62
7
100
AcDbPolyline
 90
2
 70
0
 10
12.679680
 20
-11.868424
 30
0.0
 10
12.679680
 20
-51.969944
 30
0.0
  0
LWPOLYLINE
  5
112
100
AcDbEntity
  8
0
 62
7
100
AcDbPolyline
 90
1
 70
1
 10
210.838796
 20
-74.077546
 30
0.0
  0
SPLINE
  5
113
100
AcDbEntity
  8
0
 62
7
100
AcDbSpline
 70
8
 71
3
 72
8
 73
4
 74
0
 40
0
 40
0
 40
0
 40
0
 40
1
 40
1
 40
1
 40
1
 10
0.025001
 20
-76.677540
 30
0.0
 10
0.025015
 20
-80.543527
 30
0.0
 10
3.159018
 20
-83.677522
 30
0.0
 10
7.025005
 20
-83.677526
 30
0.0
  0
SPLINE
  5
114
100
AcDbEntity
  8
0
 62
7
100
AcDbSpline
 70
8
 71
3
 72
8
 73
4
 74
0
 40
0
 40
0
 40
0
 40
0
 40
1
 40
1
 40
1
 40
1
 10
7.025005
 20
-3.613755
 30
0.0
 10
5.973405
 20
-3.613755
 30
0.0
 10
5.025353
 20
-4.247223
 30
0.0
 10
4.622923
 20
-5.218774
 30
0.0
  0
SPLINE
  5
115
100
AcDbEntity
  8
0
 62
7
100
AcDbSpline
 70
8
 71
3
 72
8
 73
4
 74
0
 40
0
 40
0
 40
0
 40
0
 40
1
 40
1
 40
1
 40
1
 10
4.622923
 20
-5.218774
 30
0.0
 10
4.220493
 20
-6.190326
 30
0.0
 10
4.442938
 20
-7.308630
 30
0.0
 10
5.186531
 20
-8.052223
 30
0.0
  0
SPLINE
  5
116
100
AcDbEntity
  8
0
 62
7
100
AcDbSpline
 70
8
 71
3
 72
8
 73
4
 74
0
 40
0
 40
0
 40
0
 40
0
 40
1
 40
1
 40
1
 40
1
 10
5.186531
 20
-8.052223
 30
0.0
 10
5.930124
 20
-8.795817
 30
0.0
 10
7.048428
 20
-9.018261
 30
0.0
 10
8.019980
 20
-8.615831
 30
0.0
  0
SPLINE
  5
117
100
AcDbEntity
  8
0
 62
7
100
AcDbSpline
 70
8
 71
3
 72
8
 73
4
 74
0
 40
0
 40
0
 40
0
 40
0
 40
1
 40
1
 40
1
 40
1
 10
8.019980
 20
-8.615831
 30
0.0
 10
8.991531
 20
-8.213402
 30
0.0
 10
9.625000
 20
-7.265349
 30
0.0
 10
9.625000
 20
-6.213749
 30
0.0
  0
SPLINE
  5
118
100
AcDbEntity
  8
0
 62
7
100
AcDbSpline
 70
8
 71
3
 72
8
 73
4
 74
0
 40
0
 40
0
 40
0
 40
0
 40
1
 40
1
 40
1
 40
1
 10
9.625000
 20
-6.213749
 30
0.0
 10
9.625000
 20
-5.524188
 30
0.0
 10
9.351073
 20
-4.862869
 30
0.0
 10
8.863479
 20
-4.375275
 30
0.0
  0
SPLINE
  5
119
100
AcDbEntity
  8
0
 62
7
100
AcDbSpline
 70
8
 71
3
 72
8
 73
4
 74
0
 40
0
 40
0
 40
0
 40
0
 40
1
 40
1
 40
1
 40
1
 10
8.863479
 20
-4.375275
 30
0.0
 10
8.375885
 20
-3.887682
 30
0.0
 10
7.714566
 20
-3.613755
 30
0.0
 10
7.025005
 20
-3.613755
 30
0.0
  0
LWPOLYLINE
  5
11a
100
AcDbEntity
  8
0
 62
7
100
AcDbPolyline
 90
2
 70
0
 10
22.204680
 20
-71.019944
 30
0.0
 10
22.207220
 20
-53.963844
 30
0.0
  0
LWPOLYLINE
  5
11b
100
AcDbEntity
  8
0
 62
7
100
AcDbPolyline
 90
1
 70
1
 10
7.025005
 20
-3.613755
 30
0.0
  0
LWPOLYLINE
  5
11c
100
AcDbEntity
  8
0
 62
7
100
AcDbPolyline
 90
2
 70
0
 10
205.181200
 20
-51.969944
 30
0.0
 10
205.181200
 20
-11.868424
 30
0.0
  0
SPLINE
  5
11d
100
AcDbEntity
  8
0
 62
7
100
AcDbSpline
 70
8
 71
3
 72
8
 73
4
 74
0
 40
0
 40
0
 40
0
 40
0
 40
1
 40
1
 40
1
 40
1
 10
72.307958
 20
-9.866066
 30
0.0
 10
72.307961
 20
-10.970632
 30
0.0
 10
73.203388
 20
-11.866059
 30
0.0
 10
74.307954
 20
-11.866062
 30
0.0
  0
SPLINE
  5
11e
100
AcDbEntity
  8
0
 62
7
100
AcDbSpline
 70
8
 71
3
 72
8
 73
4
 74
0
 40
0
 40
0
 40
0
 40
0
 40
1
 40
1
 40
1
 40
1
 10
50.308002
 20
-1.216073
 30
0.0
 10
50.308001
 20
-0.111506
 30
0.0
 10
49.412574
 20
0.783924
 30
0.0
 10
48.308006
 20
0.783927
 30
0.0
  0
LWPOLYLINE
  5
11f
100
AcDbEntity
  8
0
 62
7
100
AcDbPolyline
 90
2
 70
0
 10
20.205700
 20
-51.964864
 30
0.0
 10
12.679680
 20
-51.969944
 30
0.0
  0
LWPOLYLINE
  5
120
100
AcDbEntity
  8
0
 62
7
100
AcDbPolyline
 90
2
 70
0
 10
74.307700
 20
0.785856
 30
0.0
 10
210.837780
 20
0.788396
 30
0.0
  0
LWPOLYLINE
  5
121
100
AcDbEntity
  8
0
 62
7
100
AcDbPolyline
 90
2
 70
0
 10
12.679680
 20
-11.868424
 30
0.0
 10
48.305720
 20
-11.865884
 30
0.0
  0
LWPOLYLINE
  5
122
100
AcDbEntity
  8
0
 62
7
100
AcDbPolyline
 90
2
 70
0
 10
50.307240
 20
-9.864364
 30
0.0
 10
50.307240
 20
-1.215664
 30
0.0
  0
LWPOLYLINE
  5
123
100
AcDbEntity
  8
0
 62
7
100
AcDbPolyline
 90
2
 70
0
 10
195.656200
 20
-71.019944
 30
0.0
 10
195.656200
 20
-53.963844
 30
0.0
  0
SPLINE
  5
124
100
AcDbEntity
  8
0
 62
7
100
AcDbSpline
 70
8
 71
3
 72
8
 73
4
 74
0
 40
0
 40
0
 40
0
 40
0
 40
1
 40
1
 40
1
 40
1
 10
217.838782
 20
-6.213749
 30
0.0
 10
217.838778
 20
-2.347763
 30
0.0
 10
214.704783
 20
0.786241
 30
0.0
 10
210.838796
 20
0.786255
 30
0.0
  0
LWPOLYLINE
  5
125
100
AcDbEntity
  8
0
 62
7
100
AcDbPolyline
 90
2
 70
0
 10
205.181200
 20
-11.868424
 30
0.0
 10
74.307700
 20
-11.865884
 30
0.0
  0
SPLINE
  5
126
100
AcDbEntity
  8
0
 62
7
100
AcDbSpline
 70
8
 71
3
 72
8
 73
4
 74
0
 40
0
 40
0
 40
0
 40
0
 40
1
 40
1
 40
1
 40
1
 10
48.308006
 20
-11.866062
 30
0.0
 10
49.412572
 20
-11.866059
 30
0.0
 10
50.307999
 20
-10.970632
 30
0.0
 10
50.308002
 20
-9.866066
 30
0.0
  0
SPLINE
  5
127
100
AcDbEntity
  8
0
 62
7
100
AcDbSpline
 70
8
 71
3
 72
8
 73
4
 74
0
 40
0
 40
0
 40
0
 40
0
 40
1
 40
1
 40
1
 40
1
 10
74.307954
 20
0.783928
 30
0.0
 10
73.203386
 20
0.783925
 30
0.0
 10
72.307958
 20
-0.111505
 30
0.0
 10
72.307958
 20
-1.216073
 30
0.0
  0
LWPOLYLINE
  5
128
100
AcDbEntity
  8
0
 62
7
100
AcDbPolyline
 90
2
 70
0
 10
72.306180
 20
-9.864364
 30
0.0
 10
72.306180
 20
-1.215664
 30
0.0
  0
SPLINE
  5
129
100
AcDbEntity
  8
0
 62
7
100
AcDbSpline
 70
8
 71
3
 72
8
 73
4
 74
0
 40
0
 40
0
 40
0
 40
0
 40
1
 40
1
 40
1
 40
1
 10
210.838796
 20
-3.613755
 30
0.0
 10
209.787196
 20
-3.613755
 30
0.0
 10
208.839144
 20
-4.247223
 30
0.0
 10
208.436714
 20
-5.218774
 30
0.0
  0
SPLINE
  5
12a
100
AcDbEntity
  8
0
 62
7
100
AcDbSpline
 70
8
 71
3
 72
8
 73
4
 74
0
 40
0
 40
0
 40
0
 40
0
 40
1
 40
1
 40
1
 40
1
 10
208.436714
 20
-5.218774
 30
0.0
 10
208.034284
 20
-6.190326
 30
0.0
 10
208.256729
 20
-7.308630
 30
0.0
 10
209.000322
 20
-8.052223
 30
0.0
  0
SPLINE
  5
12b
100
AcDbEntity
  8
0
 62
7
100
AcDbSpline
 70
8
 71
3
 72
8
 73
4
 74
0
 40
0
 40
0
 40
0
 40
0
 40
1
 40
1
 40
1
 40
1
 10
209.000322
 20
-8.052223
 30
0.0
 10
209.743915
 20
-8.795817
 30
0.0
 10
210.862219
 20
-9.018261
 30
0.0
 10
211.833771
 20
-8.615831
 30
0.0
  0
SPLINE
  5
12c
100
AcDbEntity
  8
0
 62
7
100
AcDbSpline
 70
8
 71
3
 72
8
 73
4
 74
0
 40
0
 40
0
 40
0
 40
0
 40
1
 40
1
 40
1
 40
1
 10
211.833771
 20
-8.615831
 30
0.0
 10
212.805322
 20
-8.213402
 30
0.0
 10
213.438791
 20
-7.265349
 30
0.0
 10
213.438791
 20
-6.213749
 30
0.0
  0
SPLINE
  5
12d
100
AcDbEntity
  8
0
 62
7
100
AcDbSpline
 70
8
 71
3
 72
8
 73
4
 74
0
 40
0
 40
0
 40
0
 40
0
 40
1
 40
1
 40
1
 40
1
 10
213.438791
 20
-6.213749
 30
0.0
 10
213.438791
 20
-5.524188
 30
0.0
 10
213.164864
 20
-4.862869
 30
0.0
 10
212.677270
 20
-4.375275
 30
0.0
  0
SPLINE
  5
12e
100
AcDbEntity
  8
0
 62
7
100
AcDbSpline
 70
8
 71
3
 72
8
 73
4
 74
0
 40
0
 40
0
 40
0
 40
0
 40
1
 40
1
 40
1
 40
1
 10
212.677270
 20
-4.375275
 30
0.0
 10
212.189676
 20
-3.887682
 30
0.0
 10
211.528357
 20
-3.613755
 30
0.0
 10
210.838796
 20
-3.613755
 30
0.0
  0
LWPOLYLINE
  5
12f
100
AcDbEntity
  8
0
 62
7
100
AcDbPolyline
 90
2
 70
0
 10
197.657720
 20
-51.964864
 30
0.0
 10
205.181200
 20
-51.969944
 30
0.0
  0
LWPOLYLINE
  5
130
100
AcDbEntity
  8
0
 62
7
100
AcDbPolyline
 90
1
 70
1
 10
210.838796
 20
-3.613755
 30
0.0
  0
SPLINE
  5
131
100
AcDbEntity
  8
0
 62
7
100
AcDbSpline
 70
8
 71
3
 72
8
 73
4
 74
0
 40
0
 40
0
 40
0
 40
0
 40
1
 40
1
 40
1
 40
1
 10
108.927138
 20
-3.613755
 30
0.0
 10
107.491201
 20
-3.613755
 30
0.0
 10
106.327143
 20
-4.777812
 30
0.0
 10
106.327143
 20
-6.213749
 30
0.0
  0
SPLINE
  5
132
100
AcDbEntity
  8
0
 62
7
100
AcDbSpline
 70
8
 71
3
 72
8
 73
4
 74
0
 40
0
 40
0
 40
0
 40
0
 40
1
 40
1
 40
1
 40
1
 10
106.327143
 20
-6.213749
 30
0.0
 10
106.327143
 20
-7.649687
 30
0.0
 10
107.491201
 20
-8.813744
 30
0.0
 10
108.927138
 20
-8.813744
 30
0.0
  0
SPLINE
  5
133
100
AcDbEntity
  8
0
 62
7
100
AcDbSpline
 70
8
 71
3
 72
8
 73
4
 74
0
 40
0
 40
0
 40
0
 40
0
 40
1
 40
1
 40
1
 40
1
 10
108.927138
 20
-8.813744
 30
0.0
 10
110.363075
 20
-8.813744
 30
0.0
 10
111.527133
 20
-7.649687
 30
0.0
 10
111.527133
 20
-6.213749
 30
0.0
  0
SPLINE
  5
134
100
AcDbEntity
  8
0
 62
7
100
AcDbSpline
 70
8
 71
3
 72
8
 73
4
 74
0
 40
0
 40
0
 40
0
 40
0
 40
1
 40
1
 40
1
 40
1
 10
111.527133
 20
-6.213749
 30
0.0
 10
111.527133
 20
-5.524188
 30
0.0
 10
111.253206
 20
-4.862869
 30
0.0
 10
110.765612
 20
-4.375275
 30
0.0
  0
SPLINE
  5
135
100
AcDbEntity
  8
0
 62
7
100
AcDbSpline
 70
8
 71
3
 72
8
 73
4
 74
0
 40
0
 40
0
 40
0
 40
0
 40
1
 40
1
 40
1
 40
1
 10
110.765612
 20
-4.375275
 30
0.0
 10
110.278018
 20
-3.887682
 30
0.0
 10
109.616699
 20
-3.613755
 30
0.0
 10
108.927138
 20
-3.613755
 30
0.0
  0
LWPOLYLINE
  5
136
100
AcDbEntity
  8
0
 62
7
100
AcDbPolyline
 90
2
 70
0
 10
0.022860
 20
-6.211844
 30
0.0
 10
0.022860
 20
-76.676524
 30
0.0
  0
SPLINE
  5
137
100
AcDbEntity
  8
0
 62
7
100
AcDbSpline
 70
8
 71
3
 72
8
 73
4
 74
0
 40
0
 40
0
 40
0
 40
0
 40
1
 40
1
 40
1
 40
1
 10
210.838796
 20
-83.677526
 30
0.0
 10
214.704776
 20
-83.677512
 30
0.0
 10
217.838768
 20
-80.543520
 30
0.0
 10
217.838782
 20
-76.677540
 30
0.0
  0
LWPOLYLINE
  5
138
100
AcDbEntity
  8
0
 62
7
100
AcDbPolyline
 90
1
 70
1
 10
108.927138
 20
-3.613755
 30
0.0
  0
LWPOLYLINE
  5
139
100
AcDbEntity
  8
0
 62
7
100
AcDbPolyline
 90
2
 70
0
 10
7.023100
 20
-83.676764
 30
0.0
 10
210.837780
 20
-83.676764
 30
0.0
  0
SPLINE
  5
13a
100
AcDbEntity
  8
0
 62
7
100
AcDbSpline
 70
8
 71
3
 72
8
 73
4
 74
0
 40
0
 40
0
 40
0
 40
0
 40
1
 40
1
 40
1
 40
1
 10
7.025005
 20
0.786254
 30
0.0
 10
3.159012
 20
0.786250
 30
0.0
 10
0.025006
 20
-2.347756
 30
0.0
 10
0.025001
 20
-6.213749
 30
0.0
  0
SPLINE
  5
13b
100
AcDbEntity
  8
0
 62
7
100
AcDbSpline
 70
8
 71
3
 72
8
 73
4
 74
0
 40
0
 40
0
 40
0
 40
0
 40
1
 40
1
 40
1
 40
1
 10
108.927138
 20
-74.077546
 30
0.0
 10
107.491201
 20
-74.077546
 30
0.0
 10
106.327143
 20
-75.241603
 30
0.0
 10
106.327143
 20
-76.677540
 30
0.0
  0
SPLINE
  5
13c
100
AcDbEntity
  8
0
 62
7
100
AcDbSpline
 70
8
 71
3
 72
8
 73
4
 74
0
 40
0
 40
0
 40
0
 40
0
 40
1
 40
1
 40
1
 40
1
 10
106.327143
 20
-76.677540
 30
0.0
 10
106.327143
 20
-78.113478
 30
0.0
 10
107.491201
 20
-79.277535
 30
0.0
 10
108.927138
 20
-79.277535
 30
0.0
  0
SPLINE
  5
13d
100
AcDbEntity
  8
0
 62
7
100
AcDbSpline
 70
8
 71
3
 72
8
 73
4
 74
0
 40
0
 40
0
 40
0
 40
0
 40
1
 40
1
 40
1
 40
1
 10
108.927138
 20
-79.277535
 30
0.0
 10
110.363075
 20
-79.277535
 30
0.0
 10
111.527133
 20
-78.113478
 30
0.0
 10
111.527133
 20
-76.677540
 30
0.0
  0
SPLINE
  5
13e
100
AcDbEntity
  8
0
 62
7
100
AcDbSpline
 70
8
 71
3
 72
8
 73
4
 74
0
 40
0
 40
0
 40
0
 40
0
 40
1
 40
1
 40
1
 40
1
 10
111.527133
 20
-76.677540
 30
0.0
 10
111.527133
 20
-75.987979
 30
0.0
 10
111.253206
 20
-75.326660
 30
0.0
 10
110.765612
 20
-74.839066
 30
0.0
  0
SPLINE
  5
13f
100
AcDbEntity
  8
0
 62
7
100
AcDbSpline
 70
8
 71
3
 72
8
 73
4
 74
0
 40
0
 40
0
 40
0
 40
0
 40
1
 40
1
 40
1
 40
1
 10
110.765612
 20
-74.839066
 30
0.0
 10
110.278018
 20
-74.351473
 30
0.0
 10
109.616699
 20
-74.077546
 30
0.0
 10
108.927138
 20
-74.077546
 30
0.0
  0
LWPOLYLINE
  5
140
100
AcDbEntity
  8
0
 62
7
100
AcDbPolyline
 90
2
 70
0
 10
217.838020
 20
-76.676524
 30
0.0
 10
217.838020
 20
-6.211844
 30
0.0
  0
LWPOLYLINE
  5
141
100
AcDbEntity
  8
0
 62
7
100
AcDbPolyline
 90
1
 70
1
 10
108.927138
 20
-74.077546
 30
0.0
  0
LWPOLYLINE
  5
142
100
AcDbEntity
  8
0
 62
7
100
AcDbPolyline
 90
2
 70
0
 10
48.305720
 20
0.785856
 30
0.0
 10
7.023100
 20
0.788396
 30
0.0
  0
ENDSEC
  0
SECTION
  2
OBJECTS
  0
DICTIONARY
  5
C
330
0
100
AcDbDictionary
  3
ACAD_GROUP
350
D
  3
ACAD_MLINESTYLE
350
17
  0
DICTIONARY
  5
D
330
C
100
AcDbDictionary
  0
DICTIONARY
  5
1A
330
C
100
AcDbDictionary
  0
DICTIONARY
  5
17
330
C
100
AcDbDictionary
  3
STANDARD
350
18
  0
DICTIONARY
  5
19
330
C
100
AcDbDictionary
  0
ENDSEC
  0
EOF
